<svg width="512" height="512" viewBox="0 0 512 512" fill="none" xmlns="http://www.w3.org/2000/svg">
<path d="M512 440.737C512 480.206 480.206 512 440.737 512H71.2634C31.7944 512 0 480.206 0 440.737V71.2634C0 31.7944 31.7944 0 71.2634 0H440.737C480.206 0 512 31.7944 512 71.2634V440.737Z" fill="#F25621"/>
<path d="M423.743 81.679H321.234C317.397 81.679 314.107 84.9681 314.107 88.8054V180.351H325.619C327.264 180.351 328.36 181.996 328.36 183.64C328.36 184.189 328.36 184.737 327.812 185.285L262.579 251.615C260.386 254.356 260.386 257.645 262.579 260.386L328.36 327.264C328.908 327.812 328.908 328.36 328.908 328.908C328.908 330.553 327.812 331.649 326.167 332.197H314.656V423.743C314.656 427.581 317.945 430.87 321.782 430.87H424.292C428.129 430.87 431.418 427.581 431.418 423.743V88.2572C430.322 84.4199 427.581 81.679 423.743 81.679ZM184.737 185.285C183.641 184.189 183.641 181.996 184.737 180.9C185.285 180.351 185.833 179.803 186.93 179.803H198.442V88.2572C198.442 84.4199 195.152 81.1309 191.315 81.1309H88.8055C84.9683 81.1309 81.6792 84.4199 81.6792 88.2572V423.195C81.6792 427.032 84.9683 430.321 88.8055 430.321H191.315C195.152 430.321 198.442 427.032 198.442 423.195V332.197H186.93C185.285 332.197 183.641 330.553 184.189 328.908C184.189 328.36 184.737 327.264 185.285 326.715L250.519 260.386C252.711 257.645 252.711 254.356 250.519 251.615L184.737 185.285Z" fill="white"/>
</svg>
